<svg width="238" height="238" xmlns="http://www.w3.org/2000/svg">
 <!-- Created with Method Draw - http://github.com/duopixel/Method-Draw/ -->

 <g>
  <title>Layer 1</title>
  <g id="svg_5">
   <path id="svg_4" d="m97.63784,109.817131c2.999184,0 5.531113,-1.182526 7.486061,-3.4188c3.075485,-3.490318 4.424889,-9.231224 3.623833,-15.329742c-1.435234,-10.904846 -9.212158,-19.959663 -17.341919,-20.198051l-0.324242,0c-2.87999,0 -5.440498,1.172966 -7.39547,3.409256c-3.037323,3.45694 -4.305672,8.921272 -3.509377,15.000725c1.425682,10.885788 9.369476,20.293442 17.332375,20.536613l0.128738,0zm8.873604,32.838539l-2.484238,-1.692734c-2.503281,-0.77243 -5.168709,-1.172958 -7.886574,-1.211105l-0.343315,0c-12.516502,0 -23.502419,7.590973 -23.502419,16.240463c0,9.398117 9.40287,16.77449 21.413948,16.77449c15.839943,0 23.869583,-5.459579 23.869583,-16.230911c0,-1.025192 -0.119217,-2.078964 -0.362389,-3.12793c-1.072845,-4.196014 -4.91124,-6.80423 -10.704597,-10.752274zm12.993324,-141.567627c-64.852177,0 -117.416725,52.559784 -117.416725,117.407196s52.569313,117.416718 117.416725,117.416718c64.837868,0 117.407188,-52.569321 117.407188,-117.416718s-52.574097,-117.407196 -117.407188,-117.407196zm-10.685516,181.296188c-4.682365,1.349396 -9.731873,2.040787 -15.038887,2.040787c-5.903015,0 -11.586708,-0.681854 -16.879387,-2.021729c-10.251625,-2.57959 -17.833046,-7.486053 -21.361496,-13.803925c-1.525826,-2.736908 -2.298267,-5.645508 -2.298267,-8.659012c0,-3.108856 0.743824,-6.255875 2.207653,-9.379028c5.626488,-11.96817 20.422173,-20.0121 36.82,-20.0121l0.476814,0c-1.330338,-2.345963 -1.983582,-4.777748 -1.983582,-7.328728c0,-1.277863 0.166893,-2.570038 0.500664,-3.881294c-17.194107,-0.400528 -30.068214,-12.993324 -30.068214,-29.596161c0,-11.73452 9.369492,-23.149582 22.772888,-27.769966c4.014809,-1.387524 8.101151,-2.093239 12.125519,-2.093239l36.777039,0c1.25882,0 2.355499,0.810604 2.74649,2.002659c0.400528,1.201569 -0.038147,2.503292 -1.053772,3.242374l-8.225128,5.950691c-0.495888,0.352844 -1.091919,0.548355 -1.70224,0.548355l-2.941978,0c3.809784,4.553627 6.036537,11.043129 6.036537,18.347992c0,8.063019 -4.07682,15.682587 -11.491348,21.485466c-5.726608,4.463028 -5.960236,5.67894 -5.960236,8.244209c0.076286,1.406616 4.072029,5.969788 8.463531,9.078644c10.261169,7.261948 14.080475,14.371307 14.080475,26.263199c0,12.373444 -9.426712,23.11142 -24.003075,27.340805zm83.071419,-63.087936c0,1.592552 -1.301697,2.88475 -2.894272,2.88475l-20.899002,0l0,20.908524c0,1.602081 -1.29216,2.894287 -2.894287,2.894287l-5.950684,0c-1.602112,0 -2.894287,-1.292206 -2.894287,-2.894287l0,-20.908524l-20.9133,0c-1.583054,0 -2.884766,-1.292198 -2.884766,-2.88475l0,-5.960251c0,-1.59256 1.301712,-2.894279 2.884766,-2.894279l20.908508,0l0,-20.899002c0,-1.602112 1.292191,-2.894279 2.894272,-2.894279l5.950729,0c1.602112,0 2.894287,1.292168 2.894287,2.894279l0,20.899002l20.898972,0c1.592606,0 2.894302,1.30172 2.894302,2.894279l0,5.960251l0.004761,0z"/>
  </g>
 </g>
</svg>