<?xml version="1.0"?>
<svg width="237" height="238" xmlns="http://www.w3.org/2000/svg">

 <g>
  <title>background</title>
  <rect fill="none" id="canvas_background" height="240" width="239" y="-1" x="-1"/>
 </g>
 <g>
  <title>Layer 1</title>
  <g id="svg_1">
   <circle id="svg_2" r="116.713992" cy="117.713994" cx="117.713992" fill="#27AAE1"/>
   <path id="svg_3" d="m121.995697,98.873566c0.164398,-2.973473 -0.115982,-7.166397 1.017723,-10.47979c3.675468,-10.737999 10.847954,-17.425293 20.954521,-19.738113c5.309494,-1.215408 14.282379,-1.099411 19.754257,2.006195c4.198959,2.383423 7.559738,5.468857 10.347656,8.929504c4.203003,0.536598 10.985107,-1.258781 14.315643,-2.49437l4.527817,-1.671318l-0.07164,0.527512c-3.610916,6.396812 -8.020706,10.383972 -14.181503,13.398811c4.267593,-0.136169 8.557327,-0.189629 12.385147,-1.142799c1.299118,-0.323769 2.704163,-0.941063 4.173752,-1.046974l-0.018158,0.132141c-3.06929,4.246376 -11.121292,10.973015 -16.089844,12.602974c-0.880585,12.322578 -5.415421,22.404968 -9.459076,31.108536c-7.724167,16.625443 -23.86647,30.697021 -39.439911,37.124084c-6.367538,2.627502 -13.257599,4.038589 -20.509743,5.552567c-16.134201,3.366852 -42.303421,-3.482834 -53.195763,-11.110184c-2.519573,-1.76413 -10.14592,-5.485016 -11.019402,-7.945068l1.979946,0.26828c0.774643,0.918869 10.168144,1.706635 11.877769,1.610809c11.769855,-0.659653 20.913197,-2.953293 29.289951,-7.856308l0.018173,-0.132141c-11.228195,-0.585007 -23.664764,-13.954544 -23.597168,-23.224983l1.056046,0.143227c2.868561,1.407059 8.785263,1.946686 11.553978,1.028816c-2.153435,-0.375206 -3.834862,-1.665268 -5.292328,-2.599266c-8.914391,-5.707916 -15.296062,-14.661613 -13.332249,-28.55365c2.459091,1.020744 8.351559,5.833984 12.090595,4.998825l-0.3964,-0.053459l-4.520729,-5.316544c-3.386009,-6.123466 -6.700417,-15.103401 -3.060219,-25.010292c1.174057,-3.196388 3.279106,-5.558617 4.348267,-8.280949l0.527527,0.071613c7.912766,15.340431 30.259262,33.795563 53.965363,37.152313z" fill="#fff" clip-rule="evenodd" fill-rule="evenodd"/>
  </g>
 </g>
</svg>