<svg width="238" height="238" xmlns="http://www.w3.org/2000/svg" xmlns:xlink="http://www.w3.org/1999/xlink"><title>Layer 1</title><g transform="matrix(.994 0 0 .952 -32.06 -36.253)"><defs transform="translate(-527.059 23.862)"><circle r="115.714" cy="134.837" cx="682.84" id="a"/></defs><use x="-527.058" y="23.864" fill="#231F20" xlink:href="#a"/><clipPath transform="translate(-527.059 23.862)" id="b"><use x="-527.058" y="23.864" xlink:href="#a"/></clipPath><path d="M230.417 94.906v-34.736h-16v34.736h-32v17.368h32v34.736h16v-34.736h32v-17.368h-32zm-176.897 175.023c3.404 1.543 7.042 2.801 9.897 5.08-6.413-7.335-8.282-7.151-9.897-5.08zm17.897-198.92c-13.965 4.491-22.34 12.986-33 20v79s14.187 9.417 21 12c4.191 1.589 16.628 5.139 21 3h6c-3.42 13.582-4.049 27.026 7 34v1c-25.846.165-37.677 2.986-55 10 0 14.999-19.759 38.429 0 45 11.269 3.748 12.961-2.33 15.103-5.08-1.82-.825-3.577-1.727-5.103-2.92-3.575-2.794-5.057-8.502-8-12 1.766-18.63 43.591-31.686 67-24 9.305 3.055 18.188 11.91 25 18 6.051 5.41 14.351 14.676 11 26h24c.157-37.178-13.188-46.715-34-62l-17-17c-1.66-29.761 47.123-34.312 37-76-.779-3.208-1.541-8.487-3-12-3.871-9.319-10.612-14.361-17-21h-1v-1c25.433.375 23.836-5.22 36-17v-1c-29.221.099-73.353-4.604-97 3zm33 102c-8.532 2.952-18.284-.282-24-3-15.024-7.144-36.161-31.072-30-58 2.603-11.378 7.43-22.593 16-28 2.479-1.564 5.829-1.391 8-3 28.247-.595 40.615 18.168 47 39 6.867 22.406-.51 47.295-17 53z" fill="#fff" clip-rule="evenodd" fill-rule="evenodd" clip-path="url(#b)"/></g></svg>